<mxfile host="app.diagrams.net" modified="2024-01-15T08:56:48.765Z" agent="Mozilla/5.0 (Windows NT 10.0; Win64; x64) AppleWebKit/537.36 (KHTML, like Gecko) Chrome/120.0.0.0 Safari/537.36 Edg/120.0.0.0" etag="uRjv4RbdiNXcnRgoigC4" version="22.1.18" type="github">
  <diagram name="Page-1" id="2p6TqOj9q4PW8BYsp56P">
    <mxGraphModel dx="1386" dy="785" grid="1" gridSize="10" guides="1" tooltips="1" connect="1" arrows="1" fold="1" page="1" pageScale="1" pageWidth="850" pageHeight="1100" math="0" shadow="0">
      <root>
        <mxCell id="0" />
        <mxCell id="1" parent="0" />
        <mxCell id="_Hsuxw23aZa0QpvCSoaY-26" style="edgeStyle=orthogonalEdgeStyle;rounded=0;orthogonalLoop=1;jettySize=auto;html=1;exitX=1;exitY=0.5;exitDx=0;exitDy=0;entryX=0;entryY=0.5;entryDx=0;entryDy=0;" edge="1" parent="1" source="_Hsuxw23aZa0QpvCSoaY-10" target="_Hsuxw23aZa0QpvCSoaY-12">
          <mxGeometry relative="1" as="geometry" />
        </mxCell>
        <mxCell id="_Hsuxw23aZa0QpvCSoaY-10" value="" style="rounded=1;whiteSpace=wrap;html=1;" vertex="1" parent="1">
          <mxGeometry x="500" y="162.5" width="120" height="245" as="geometry" />
        </mxCell>
        <mxCell id="_Hsuxw23aZa0QpvCSoaY-11" style="edgeStyle=orthogonalEdgeStyle;rounded=0;orthogonalLoop=1;jettySize=auto;html=1;exitX=1;exitY=0.5;exitDx=0;exitDy=0;" edge="1" parent="1" source="_Hsuxw23aZa0QpvCSoaY-9" target="_Hsuxw23aZa0QpvCSoaY-10">
          <mxGeometry relative="1" as="geometry" />
        </mxCell>
        <mxCell id="_Hsuxw23aZa0QpvCSoaY-9" value="" style="rounded=1;whiteSpace=wrap;html=1;" vertex="1" parent="1">
          <mxGeometry x="305" y="220" width="120" height="130" as="geometry" />
        </mxCell>
        <mxCell id="_Hsuxw23aZa0QpvCSoaY-1" value="Web App" style="image;aspect=fixed;html=1;points=[];align=center;fontSize=12;image=img/lib/azure2/app_services/App_Service_Domains.svg;" vertex="1" parent="1">
          <mxGeometry x="120" y="200" width="50" height="40" as="geometry" />
        </mxCell>
        <mxCell id="_Hsuxw23aZa0QpvCSoaY-2" value="&lt;font style=&quot;font-size: 17px;&quot;&gt;App Services&lt;/font&gt;" style="image;aspect=fixed;html=1;points=[];align=center;fontSize=12;image=img/lib/azure2/compute/App_Services.svg;" vertex="1" parent="1">
          <mxGeometry x="528" y="253" width="64" height="64" as="geometry" />
        </mxCell>
        <mxCell id="_Hsuxw23aZa0QpvCSoaY-3" value="Web Services" style="image;aspect=fixed;html=1;points=[];align=center;fontSize=12;image=img/lib/azure2/general/Web_Test.svg;" vertex="1" parent="1">
          <mxGeometry x="125" y="290" width="40" height="40" as="geometry" />
        </mxCell>
        <mxCell id="_Hsuxw23aZa0QpvCSoaY-4" value="" style="shape=curlyBracket;whiteSpace=wrap;html=1;rounded=1;flipH=1;labelPosition=right;verticalLabelPosition=middle;align=left;verticalAlign=middle;" vertex="1" parent="1">
          <mxGeometry x="200" y="220" width="20" height="120" as="geometry" />
        </mxCell>
        <mxCell id="_Hsuxw23aZa0QpvCSoaY-5" value="" style="endArrow=classic;html=1;rounded=0;exitX=0.1;exitY=0.5;exitDx=0;exitDy=0;exitPerimeter=0;" edge="1" parent="1" source="_Hsuxw23aZa0QpvCSoaY-4">
          <mxGeometry width="50" height="50" relative="1" as="geometry">
            <mxPoint x="250" y="300" as="sourcePoint" />
            <mxPoint x="300" y="280" as="targetPoint" />
          </mxGeometry>
        </mxCell>
        <mxCell id="_Hsuxw23aZa0QpvCSoaY-6" value="Dev" style="image;aspect=fixed;html=1;points=[];align=center;fontSize=12;image=img/lib/azure2/identity/Users.svg;" vertex="1" parent="1">
          <mxGeometry x="230" y="217" width="36.56" height="40" as="geometry" />
        </mxCell>
        <mxCell id="_Hsuxw23aZa0QpvCSoaY-8" value="&lt;font style=&quot;font-size: 17px;&quot;&gt;Package&lt;/font&gt;" style="verticalLabelPosition=bottom;html=1;verticalAlign=top;align=center;strokeColor=none;fillColor=#00BEF2;shape=mxgraph.azure.cloud_service_package_file;" vertex="1" parent="1">
          <mxGeometry x="343.75" y="255" width="42.5" height="50" as="geometry" />
        </mxCell>
        <mxCell id="_Hsuxw23aZa0QpvCSoaY-12" value="" style="rounded=1;whiteSpace=wrap;html=1;" vertex="1" parent="1">
          <mxGeometry x="700" y="113.5" width="180" height="343" as="geometry" />
        </mxCell>
        <mxCell id="_Hsuxw23aZa0QpvCSoaY-13" value="" style="outlineConnect=0;dashed=0;verticalLabelPosition=bottom;verticalAlign=top;align=center;html=1;shape=mxgraph.aws3.classic_load_balancer;fillColor=#F58536;gradientColor=none;" vertex="1" parent="1">
          <mxGeometry x="860" y="260.5" width="40" height="43" as="geometry" />
        </mxCell>
        <mxCell id="_Hsuxw23aZa0QpvCSoaY-28" value="" style="group" vertex="1" connectable="0" parent="1">
          <mxGeometry x="730" y="147" width="120" height="127" as="geometry" />
        </mxCell>
        <mxCell id="_Hsuxw23aZa0QpvCSoaY-15" value="" style="rounded=1;whiteSpace=wrap;html=1;" vertex="1" parent="_Hsuxw23aZa0QpvCSoaY-28">
          <mxGeometry width="120" height="93" as="geometry" />
        </mxCell>
        <mxCell id="_Hsuxw23aZa0QpvCSoaY-17" value="&lt;font style=&quot;font-size: 17px;&quot;&gt;Node&lt;/font&gt;" style="text;html=1;strokeColor=none;fillColor=none;align=center;verticalAlign=middle;whiteSpace=wrap;rounded=0;" vertex="1" parent="_Hsuxw23aZa0QpvCSoaY-28">
          <mxGeometry x="15" y="97" width="90" height="30" as="geometry" />
        </mxCell>
        <mxCell id="_Hsuxw23aZa0QpvCSoaY-27" value="App" style="image;aspect=fixed;html=1;points=[];align=center;fontSize=12;image=img/lib/azure2/compute/App_Services.svg;" vertex="1" parent="_Hsuxw23aZa0QpvCSoaY-28">
          <mxGeometry x="38.5" y="25" width="43" height="43" as="geometry" />
        </mxCell>
        <mxCell id="_Hsuxw23aZa0QpvCSoaY-30" value="" style="group" vertex="1" connectable="0" parent="1">
          <mxGeometry x="730" y="300" width="120" height="127" as="geometry" />
        </mxCell>
        <mxCell id="_Hsuxw23aZa0QpvCSoaY-31" value="" style="rounded=1;whiteSpace=wrap;html=1;" vertex="1" parent="_Hsuxw23aZa0QpvCSoaY-30">
          <mxGeometry width="120" height="93" as="geometry" />
        </mxCell>
        <mxCell id="_Hsuxw23aZa0QpvCSoaY-32" value="&lt;font style=&quot;font-size: 17px;&quot;&gt;Node&lt;/font&gt;" style="text;html=1;strokeColor=none;fillColor=none;align=center;verticalAlign=middle;whiteSpace=wrap;rounded=0;" vertex="1" parent="_Hsuxw23aZa0QpvCSoaY-30">
          <mxGeometry x="15" y="97" width="90" height="30" as="geometry" />
        </mxCell>
        <mxCell id="_Hsuxw23aZa0QpvCSoaY-33" value="App" style="image;aspect=fixed;html=1;points=[];align=center;fontSize=12;image=img/lib/azure2/compute/App_Services.svg;" vertex="1" parent="_Hsuxw23aZa0QpvCSoaY-30">
          <mxGeometry x="38.5" y="25" width="43" height="43" as="geometry" />
        </mxCell>
        <mxCell id="_Hsuxw23aZa0QpvCSoaY-34" value="" style="image;aspect=fixed;html=1;points=[];align=center;fontSize=12;image=img/lib/azure2/identity/Groups.svg;" vertex="1" parent="1">
          <mxGeometry x="960" y="252" width="68" height="56.00000000000001" as="geometry" />
        </mxCell>
        <mxCell id="_Hsuxw23aZa0QpvCSoaY-35" style="edgeStyle=orthogonalEdgeStyle;rounded=0;orthogonalLoop=1;jettySize=auto;html=1;exitX=1;exitY=0.5;exitDx=0;exitDy=0;exitPerimeter=0;entryX=0.015;entryY=0.536;entryDx=0;entryDy=0;entryPerimeter=0;startArrow=classic;startFill=1;" edge="1" parent="1" source="_Hsuxw23aZa0QpvCSoaY-13" target="_Hsuxw23aZa0QpvCSoaY-34">
          <mxGeometry relative="1" as="geometry" />
        </mxCell>
      </root>
    </mxGraphModel>
  </diagram>
</mxfile>
